grf
version=1
nRows=44
nColumns=19
inDegrees=yes
endheader
time	ground_force_2_vx	ground_force_2_vy	ground_force_2_vz	ground_force_2_px	ground_force_2_py	ground_force_2_pz	ground_moment_2_mx	ground_moment_2_my	ground_moment_2_mz	ground_force_3_vx	ground_force_3_vy	ground_force_3_vz	ground_force_3_px	ground_force_3_py	ground_force_3_pz	ground_moment_3_mx	ground_moment_3_my	ground_moment_3_mz
1.050000	4.513753	417.203868	20.474142	-0.200712	0.000000	0.199720	0.000000	-0.591687	-0.000000	0.000000	0.000000	0.000000	-0.730390	0.000000	0.362981	0.000000	0.000000	0.000000
1.051000	4.682081	417.752590	20.548717	-0.200297	0.000000	0.199638	0.000000	-0.605896	-0.000000	0.000000	0.000000	0.000000	-0.729949	0.000000	0.362635	0.000000	0.000000	0.000000
1.052000	4.849624	418.311391	20.624840	-0.199881	0.000000	0.199556	0.000000	-0.620037	-0.000000	0.000000	0.000000	0.000000	-0.729553	0.000000	0.362324	0.000000	0.000000	0.000000
1.053000	5.016396	418.879887	20.702482	-0.199464	0.000000	0.199474	0.000000	-0.634107	-0.000000	0.000000	0.000000	0.000000	-0.729195	0.000000	0.362042	0.000000	0.000000	0.000000
1.054000	5.182407	419.457701	20.781617	-0.199045	0.000000	0.199391	0.000000	-0.648104	-0.000000	0.000000	0.000000	0.000000	-0.728868	0.000000	0.361785	0.000000	0.000000	0.000000
1.055000	5.347667	420.044462	20.862217	-0.198625	0.000000	0.199308	0.000000	-0.662026	-0.000000	0.000000	0.000000	0.000000	-0.728568	0.000000	0.361550	0.000000	0.000000	0.000000
1.056000	5.512186	420.639805	20.944257	-0.198204	0.000000	0.199224	0.000000	-0.675872	-0.000000	0.000000	0.000000	0.000000	-0.728292	0.000000	0.361333	0.000000	0.000000	0.000000
1.057000	5.675973	421.243370	21.027711	-0.197781	0.000000	0.199140	0.000000	-0.689640	-0.000000	0.000000	0.000000	0.000000	-0.728036	0.000000	0.361132	0.000000	0.000000	0.000000
1.058000	5.839036	421.854804	21.112555	-0.197357	0.000000	0.199056	0.000000	-0.703328	-0.000000	0.000000	0.000000	0.000000	-0.727797	0.000000	0.360944	0.000000	0.000000	0.000000
1.059000	6.001382	422.473761	21.198763	-0.196932	0.000000	0.198972	0.000000	-0.716935	-0.000000	0.000000	0.000000	0.000000	-0.727574	0.000000	0.360769	0.000000	0.000000	0.000000
1.060000	6.163018	423.099903	21.286311	-0.196506	0.000000	0.198887	0.000000	-0.730458	-0.000000	0.000000	0.000000	0.000000	-0.727364	0.000000	0.360604	0.000000	0.000000	0.000000
1.061000	6.323950	423.732897	21.375175	-0.196078	0.000000	0.198801	0.000000	-0.743898	-0.000000	0.000000	0.000000	0.000000	-0.727166	0.000000	0.360448	0.000000	0.000000	0.000000
1.062000	6.484186	424.372418	21.465332	-0.195649	0.000000	0.198716	0.000000	-0.757251	-0.000000	0.000000	0.000000	0.000000	-0.726978	0.000000	0.360300	0.000000	0.000000	0.000000
1.063000	6.643729	425.018149	21.556760	-0.195219	0.000000	0.198630	-0.000000	-0.770518	-0.000000	0.000000	0.000000	0.000000	-0.726799	0.000000	0.360160	0.000000	0.000000	0.000000
1.064000	6.802586	425.669782	21.649436	-0.194787	0.000000	0.198544	-0.000000	-0.783695	-0.000000	0.000000	0.000000	0.000000	-0.726629	0.000000	0.360026	0.000000	0.000000	0.000000
1.065000	6.960762	426.327014	21.743336	-0.194355	0.000000	0.198457	-0.000000	-0.796783	-0.000000	0.000000	0.000000	0.000000	-0.726466	0.000000	0.359898	0.000000	0.000000	0.000000
1.066000	7.118261	426.989553	21.838441	-0.193921	0.000000	0.198371	-0.000000	-0.809780	-0.000000	0.000000	0.000000	0.000000	-0.726310	0.000000	0.359775	0.000000	0.000000	0.000000
1.067000	7.275089	427.657113	21.934728	-0.193487	0.000000	0.198283	-0.000000	-0.822684	-0.000000	0.000000	0.000000	0.000000	-0.726159	0.000000	0.359657	0.000000	0.000000	0.000000
1.068000	7.431251	428.329418	22.032176	-0.193051	0.000000	0.198196	-0.000000	-0.835494	-0.000000	0.000000	0.000000	0.000000	-0.726014	0.000000	0.359543	0.000000	0.000000	0.000000
1.069000	7.586751	429.006199	22.130764	-0.192614	0.000000	0.198108	-0.000000	-0.848210	-0.000000	0.000000	0.000000	0.000000	-0.725873	0.000000	0.359432	0.000000	0.000000	0.000000
1.070000	7.741595	429.687199	22.230473	-0.192176	0.000000	0.198020	-0.000000	-0.860830	-0.000000	0.000000	0.000000	0.000000	-0.725736	0.000000	0.359325	0.000000	0.000000	0.000000
1.071000	7.895788	430.372165	22.331281	-0.191736	0.000000	0.197932	-0.000000	-0.873354	-0.000000	0.000000	0.000000	0.000000	-0.725603	0.000000	0.359220	0.000000	0.000000	0.000000
1.072000	8.049336	431.060857	22.433169	-0.191296	0.000000	0.197843	-0.000000	-0.885780	-0.000000	0.000000	0.000000	0.000000	-0.725473	0.000000	0.359118	0.000000	0.000000	0.000000
1.073000	8.202244	431.753043	22.536117	-0.190855	0.000000	0.197755	-0.000000	-0.898107	-0.000000	0.000000	0.000000	0.000000	-0.725346	0.000000	0.359018	0.000000	0.000000	0.000000
1.074000	8.354518	432.448498	22.640105	-0.190412	0.000000	0.197665	-0.000000	-0.910336	-0.000000	0.000000	0.000000	0.000000	-0.725221	0.000000	0.358920	0.000000	0.000000	0.000000
1.075000	8.506166	433.147009	22.745115	-0.189969	0.000000	0.197576	-0.000000	-0.922464	-0.000000	0.000000	0.000000	0.000000	-0.725098	0.000000	0.358824	0.000000	0.000000	0.000000
1.076000	8.657193	433.848372	22.851128	-0.189525	0.000000	0.197486	-0.000000	-0.934491	-0.000000	0.000000	0.000000	0.000000	-0.724978	0.000000	0.358729	0.000000	0.000000	0.000000
1.077000	8.807609	434.552390	22.958124	-0.189079	0.000000	0.197396	-0.000000	-0.946417	-0.000000	0.000000	0.000000	0.000000	-0.724858	0.000000	0.358635	0.000000	0.000000	0.000000
1.078000	8.957422	435.258878	23.066085	-0.188633	0.000000	0.197306	-0.000000	-0.958241	-0.000000	0.000000	0.000000	0.000000	-0.724740	0.000000	0.358542	0.000000	0.000000	0.000000
1.079000	9.106640	435.967660	23.174992	-0.188185	0.000000	0.197215	-0.000000	-0.969962	-0.000000	0.000000	0.000000	0.000000	-0.724623	0.000000	0.358450	0.000000	0.000000	0.000000
1.080000	9.255274	436.678569	23.284827	-0.187737	0.000000	0.197124	-0.000000	-0.981581	-0.000000	0.000000	0.000000	0.000000	-0.724506	0.000000	0.358359	0.000000	0.000000	0.000000
1.081000	9.403334	437.391447	23.395571	-0.187288	0.000000	0.197033	-0.000000	-0.993096	-0.000000	0.000000	0.000000	0.000000	-0.724390	0.000000	0.358267	0.000000	0.000000	0.000000
1.082000	9.550831	438.106147	23.507207	-0.186837	0.000000	0.196941	-0.000000	-1.004507	-0.000000	0.000000	0.000000	0.000000	-0.724274	0.000000	0.358176	0.000000	0.000000	0.000000
1.083000	9.697779	438.822530	23.619715	-0.186386	0.000000	0.196849	-0.000000	-1.015814	-0.000000	0.000000	0.000000	0.000000	-0.724158	0.000000	0.358085	0.000000	0.000000	0.000000
1.084000	9.844190	439.540468	23.733079	-0.185934	0.000000	0.196757	-0.000000	-1.027017	-0.000000	0.000000	0.000000	0.000000	-0.724042	0.000000	0.357993	0.000000	0.000000	0.000000
1.085000	9.990080	440.259842	23.847279	-0.185481	0.000000	0.196665	-0.000000	-1.038116	-0.000000	0.000000	0.000000	0.000000	-0.723925	0.000000	0.357901	0.000000	0.000000	0.000000
1.086000	10.135463	440.980543	23.962297	-0.185028	0.000000	0.196572	-0.000000	-1.049110	-0.000000	0.000000	0.000000	0.000000	-0.723807	0.000000	0.357809	0.000000	0.000000	0.000000
1.087000	10.280357	441.702469	24.078116	-0.184573	0.000000	0.196480	-0.000000	-1.059999	-0.000000	0.000000	0.000000	0.000000	-0.723687	0.000000	0.357715	0.000000	0.000000	0.000000
1.088000	10.424779	442.425531	24.194717	-0.184118	0.000000	0.196387	-0.000000	-1.070784	-0.000000	0.000000	0.000000	0.000000	-0.723567	0.000000	0.357620	0.000000	0.000000	0.000000
1.089000	10.568749	443.149648	24.312081	-0.183661	0.000000	0.196293	-0.000000	-1.081464	-0.000000	0.000000	0.000000	0.000000	-0.723444	0.000000	0.357524	0.000000	0.000000	0.000000
1.090000	10.712287	443.874748	24.430192	-0.183204	0.000000	0.196200	-0.000000	-1.092040	-0.000000	0.000000	0.000000	0.000000	-0.723320	0.000000	0.357426	0.000000	0.000000	0.000000
1.091000	10.855415	444.600768	24.549030	-0.182747	0.000000	0.196106	-0.000000	-1.102512	-0.000000	0.000000	0.000000	0.000000	-0.723193	0.000000	0.357327	0.000000	0.000000	0.000000
1.092000	10.998156	445.327654	24.668576	-0.182288	0.000000	0.196012	-0.000000	-1.112880	-0.000000	0.000000	0.000000	0.000000	-0.723063	0.000000	0.357225	0.000000	0.000000	0.000000
1.093000	11.140535	446.055363	24.788813	-0.181829	0.000000	0.195919	-0.000000	-1.123144	-0.000000	0.000000	0.000000	0.000000	-0.722930	0.000000	0.357120	0.000000	0.000000	0.000000
